P1
# CREATOR: GIMP PNM Filter Version 1.1
64 64
0000000000000000000000000000000000000000000000000000000000000000000000
0000000000000000000000000000000000000000000000000000000000000000000000
0000000000000000000000000000000000000000000000000000000000000000000000
0000000000000000000000000000000000000000000000000000000000000000000001
0000000000000000000000000000000000000000000000000000000000000011100000
0000000000110000000000000000000000000000000000000000000011100000000000
0001111000000000000000000000000000000000000000000111110000000000000111
1000000000000000000000000000000000001000000111110000000000000111100000
0000000000000000000000000000001000000011100000000000000111100000011000
0000000000000000000000011100000001000000000000000011000000111000000000
0000000000000000011110000011100000000000000011000000111100000000000000
0000000000111110000011100000000000000011000000111100000000000000000000
0000011100000011100000001000000011000000111100000000000000000000000000
1000000011100000011000000011000000011000000000000000000000000000110000
0011100000111100000011000000011000000000000000000000000000110000001110
0000111100000011000000011000000000000000000000000000110000001110000011
1100000011000000011000000000000000000000000000110000001110000001110000
0011000000011000000000000000000000000000110000001110011001100011001100
0000011000000000000000000000000000110011001110011001100011001100111001
1000000000000000000000000000110011001110000001100000001100111001100000
0000000000000000011000110000001110000001100000001100000001100110000000
0000000001111000110000001110000001100000001100000001100111100000000000
0111110000110000001100000001100000001100000001100011111000000000111100
0000110000000100000001100000000100000001100000011100000001110000000011
0000000000000001100000000000000001100000001110000001100000000011000000
0000000001100000000000000001100000000111000001100000000011000000000000
0001100000000000000001100000000011000011100000000011000000000000000110
0000000000000001100000000011000011100000000000000000000000000110000000
0000000000000000000111000011110000000000000000000000000110000000000000
0000000000001111000011111100000000000000000000000110000000000000000000
0000111111000011101111000000000000000000000110000000000000000000001111
1011000011100111111100000000000000000000000000000000000001111110001100
0011100000111111110000000000000000000000000000011111111000001100001110
0000000111111111111110000000000011111111111111000000001100001110000000
0000011111111111111111111111111111110000000000001100001110000000000000
0000001111111111111111000000000000000000001100001110000000000000000000
0000000000000000000000000000000000001100001110000000000000000000000000
0000000000000000000000000000001100001110000000000000000000000000000000
0000000000000000000000001100001110000000000000000000000000000000000000
0000000000000000011100001111000000000000000000000000000000000000000000
0000000000011100001111000000000000000000000000000000000000000000000000
0000111100001111100011110000000000000000000000000000000000000111000011
1100001111110111111000000000000000000000000000000000001111110111110000
1110111110011000000000000000000000000000000000011101111110110000111001
1100001100000011111000000000011111000000111000011100110000111000000000
1110000111111100000000111111110000110000000000110000111000000000011000
1110001110000001110001111001110000000000110000111000000000011101110000
0111000001100000011111100000000000110000111000000000001111100000001110
0011100000001111000000000000110000011000000000000110000000000111111100
0000000110000000000001110000011100000000000000000000000111111000000000
0000000000000011100000001111000000000000000000000000000000000000000000
0000000111000000000111110000000000000000000000000000000000000000000001
1110000000000001111110000000000000000000000000000000000000001111110000
0000000000011111111000000000000000000000000000000111111110000000000000
0000000011111111111100000000000000001111111111110000000000000000000000
0000001111111111111111111111111111111100000000000000000000000000000000
0000001111111111111111111100000000000000000000000000000000000000000000
0000000000000000000000000000000000000000000000000000000000000000000000
000000000000000000000000000000000000